<svg width="24" height="24" viewBox="0 0 24 24" fill="none" xmlns="http://www.w3.org/2000/svg">
<path d="M10.7999 12L14.6999 15.9C14.8833 16.0833 14.9749 16.3167 14.9749 16.6C14.9749 16.8833 14.8833 17.1167 14.6999 17.3C14.5166 17.4833 14.2833 17.575 13.9999 17.575C13.7166 17.575 13.4833 17.4833 13.2999 17.3L8.69994 12.7C8.59994 12.6 8.52928 12.4917 8.48794 12.375C8.44661 12.2583 8.42561 12.1333 8.42494 12C8.42428 11.8667 8.44528 11.7417 8.48794 11.625C8.53061 11.5083 8.60128 11.4 8.69994 11.3L13.2999 6.69999C13.4833 6.51665 13.7166 6.42499 13.9999 6.42499C14.2833 6.42499 14.5166 6.51665 14.6999 6.69999C14.8833 6.88332 14.9749 7.11665 14.9749 7.39999C14.9749 7.68332 14.8833 7.91665 14.6999 8.09999L10.7999 12Z" fill="white"/>
</svg>
