<svg xmlns="http://www.w3.org/2000/svg" width="24" height="24" viewBox="0 0 24 24" fill="none">
<path fill-rule="evenodd" clip-rule="evenodd" d="M5.46983 5.46983C5.61045 5.32938 5.80108 5.25049 5.99983 5.25049C6.19858 5.25049 6.3892 5.32938 6.52983 5.46983L18.5298 17.4698C18.6035 17.5385 18.6626 17.6213 18.7036 17.7133C18.7446 17.8053 18.7666 17.9046 18.7684 18.0053C18.7702 18.106 18.7517 18.206 18.714 18.2994C18.6762 18.3928 18.6201 18.4776 18.5489 18.5489C18.4776 18.6201 18.3928 18.6762 18.2994 18.714C18.206 18.7517 18.106 18.7702 18.0053 18.7684C17.9046 18.7666 17.8053 18.7446 17.7133 18.7036C17.6213 18.6626 17.5385 18.6035 17.4698 18.5298L5.46983 6.52983C5.32938 6.3892 5.25049 6.19858 5.25049 5.99983C5.25049 5.80108 5.32938 5.61045 5.46983 5.46983Z" fill="#F7F2E8"/>
<path fill-rule="evenodd" clip-rule="evenodd" d="M18.5298 5.46983C18.6703 5.61045 18.7492 5.80108 18.7492 5.99983C18.7492 6.19858 18.6703 6.3892 18.5298 6.52983L6.52985 18.5298C6.38767 18.6623 6.19963 18.7344 6.00532 18.731C5.81102 18.7276 5.62564 18.6489 5.48822 18.5115C5.35081 18.374 5.2721 18.1887 5.26867 17.9944C5.26524 17.8001 5.33737 17.612 5.46985 17.4698L17.4698 5.46983C17.6105 5.32938 17.8011 5.25049 17.9998 5.25049C18.1986 5.25049 18.3892 5.32938 18.5298 5.46983Z" fill="#F7F2E8"/>
</svg>