<svg xmlns="http://www.w3.org/2000/svg" width="24" height="24" viewBox="0 0 24 24" fill="none">
<path d="M12.0001 20.4001C13.3256 20.4001 14.4001 19.3256 14.4001 18.0001C14.4001 16.6746 13.3256 15.6001 12.0001 15.6001C10.6746 15.6001 9.6001 16.6746 9.6001 18.0001C9.6001 19.3256 10.6746 20.4001 12.0001 20.4001Z" fill="white"/>
<path d="M12.0001 14.4001C13.3256 14.4001 14.4001 13.3256 14.4001 12.0001C14.4001 10.6746 13.3256 9.6001 12.0001 9.6001C10.6746 9.6001 9.6001 10.6746 9.6001 12.0001C9.6001 13.3256 10.6746 14.4001 12.0001 14.4001Z" fill="white"/>
<path d="M12.0001 8.4001C13.3256 8.4001 14.4001 7.32558 14.4001 6.0001C14.4001 4.67461 13.3256 3.6001 12.0001 3.6001C10.6746 3.6001 9.6001 4.67461 9.6001 6.0001C9.6001 7.32558 10.6746 8.4001 12.0001 8.4001Z" fill="white"/>
</svg>