<svg xmlns="http://www.w3.org/2000/svg" width="24" height="24" viewBox="0 0 24 24" fill="none">
<path d="M4.687 6.21311L6.8 18.9761C6.89665 19.5604 7.19759 20.0914 7.6492 20.4745C8.10081 20.8576 8.67377 21.068 9.266 21.0681H12.614M19.312 6.21311L17.2 18.9761C17.1033 19.5604 16.8024 20.0914 16.3508 20.4745C15.8992 20.8576 15.3262 21.068 14.734 21.0681H11.386M10.022 11.1161V16.1651M13.978 11.1161V16.1651M2.75 6.21311H21.25M14.777 6.21311V4.43311C14.777 4.03528 14.619 3.65375 14.3377 3.37245C14.0564 3.09114 13.6748 2.93311 13.277 2.93311H10.723C10.3252 2.93311 9.94364 3.09114 9.66234 3.37245C9.38104 3.65375 9.223 4.03528 9.223 4.43311V6.21311H14.777Z" stroke="#F5F6F8" stroke-width="1.5" stroke-linecap="round" stroke-linejoin="round"/>
</svg>