<svg xmlns="http://www.w3.org/2000/svg" width="24" height="24" viewBox="0 0 24 24" fill="none">
<path d="M4.687 6.213L6.8 18.976C6.89665 19.5603 7.19759 20.0913 7.6492 20.4744C8.10081 20.8575 8.67377 21.0679 9.266 21.068H12.614M19.312 6.213L17.2 18.976C17.1033 19.5603 16.8024 20.0913 16.3508 20.4744C15.8992 20.8575 15.3262 21.0679 14.734 21.068H11.386M10.022 11.116V16.165M13.978 11.116V16.165M2.75 6.213H21.25M14.777 6.213V4.433C14.777 4.03517 14.619 3.65364 14.3377 3.37234C14.0564 3.09103 13.6748 2.933 13.277 2.933H10.723C10.3252 2.933 9.94364 3.09103 9.66234 3.37234C9.38104 3.65364 9.223 4.03517 9.223 4.433V6.213H14.777Z" stroke="#F5F6F8" stroke-width="1.5" stroke-linecap="round" stroke-linejoin="round"/>
</svg>