<svg xmlns="http://www.w3.org/2000/svg" width="175" height="58" viewBox="0 0 175 58" fill="none">
  <g clip-path="url(#clip0_14_185)">
    <path fill-rule="evenodd" clip-rule="evenodd" d="M42.7469 11.4788V45.6109C42.7469 47.9657 40.8315 49.8774 38.4722 49.8774H4.27469C1.91542 49.8774 0 47.9657 0 45.6109V11.4788C0 9.12402 1.91542 7.21227 4.27469 7.21227H38.4722C40.8315 7.21227 42.7469 9.12402 42.7469 11.4788Z" fill="white"/>
    <path fill-rule="evenodd" clip-rule="evenodd" d="M41.2721 12.6564V44.4334C41.2721 46.6256 39.4889 48.4055 37.2924 48.4055H5.45447C3.258 48.4055 1.47471 46.6257 1.47471 44.4334V12.6564C1.47471 10.4641 3.25794 8.68421 5.45447 8.68421H37.2924C39.4888 8.68421 41.2721 10.464 41.2721 12.6564Z" fill="#111A2C"/>
    <path fill-rule="evenodd" clip-rule="evenodd" d="M1.45386 29.2557C1.06083 29.2441 0.75109 28.9163 0.76259 28.524C0.774148 28.1318 1.10259 27.8226 1.49562 27.8341C1.49562 27.8341 11.1424 28.1169 20.1438 29.8952C37.8738 33.3981 41.8345 38.604 41.8345 38.604C42.0758 38.9139 42.0197 39.361 41.7093 39.6018C41.3989 39.8427 40.9509 39.7867 40.7096 39.4769C40.7096 39.4769 36.8527 34.6461 19.8671 31.2903C10.979 29.5343 1.4538 29.2556 1.4538 29.2556L1.45386 29.2557Z" fill="#FFF9F9"/>
    <path d="M14.3416 39.9791C15.4866 39.9791 16.4148 39.5589 16.4148 39.0405C16.4148 38.5221 15.4866 38.1018 14.3416 38.1018C13.1966 38.1018 12.2684 38.5221 12.2684 39.0405C12.2684 39.5589 13.1966 39.9791 14.3416 39.9791Z" fill="#F5F6F8"/>
    <path fill-rule="evenodd" clip-rule="evenodd" d="M14.3416 37.3908C15.3519 37.3908 16.2168 37.694 16.6523 38.0741C16.9778 38.3582 17.1273 38.6986 17.1273 39.0405C17.1273 39.3825 16.9778 39.7228 16.6523 40.007C16.2169 40.3871 15.3519 40.6903 14.3416 40.6903C13.3312 40.6903 12.4664 40.3871 12.0309 40.007C11.7053 39.7228 11.5559 39.3825 11.5559 39.0405C11.5559 38.6986 11.7053 38.3582 12.0309 38.0741C12.4663 37.694 13.3312 37.3908 14.3416 37.3908ZM13.1378 39.0405C13.1488 39.0464 13.1597 39.0518 13.1702 39.0565C13.4697 39.1921 13.8849 39.2681 14.3416 39.2681C14.7983 39.2681 15.2134 39.1921 15.513 39.0565C15.5234 39.0518 15.5343 39.0464 15.5453 39.0405C15.5343 39.0347 15.5234 39.0293 15.513 39.0245C15.2135 38.8889 14.7983 38.813 14.3416 38.813C13.8849 38.813 13.4697 38.8889 13.1702 39.0245C13.1597 39.0293 13.1488 39.0347 13.1378 39.0405Z" fill="#F5F6F8"/>
    <path fill-rule="evenodd" clip-rule="evenodd" d="M15.1003 14.5827V38.2832C15.1003 38.7011 14.7603 39.0405 14.3416 39.0405C13.9228 39.0405 13.5828 38.7011 13.5828 38.2832V14.5827C13.5828 14.1647 13.9228 13.8254 14.3416 13.8254C14.7603 13.8254 15.1003 14.1647 15.1003 14.5827Z" fill="#F5F6F8"/>
    <path fill-rule="evenodd" clip-rule="evenodd" d="M14.0869 15.1721C13.7197 15.0318 13.5357 14.6204 13.6762 14.2538C13.8168 13.8873 14.229 13.7036 14.5963 13.8439L26.1593 18.2612C26.5265 18.4015 26.7105 18.813 26.57 19.1795C26.4294 19.546 26.0172 19.7297 25.6499 19.5894L14.0869 15.1721Z" fill="#F5F6F8"/>
    <path fill-rule="evenodd" clip-rule="evenodd" d="M25.669 18.2542C26.0401 18.1244 26.447 18.3198 26.577 18.6901C26.707 19.0605 26.5113 19.4666 26.1402 19.5963L14.5772 23.6403C14.2061 23.7701 13.7993 23.5748 13.6692 23.2044C13.5392 22.834 13.7349 22.428 14.106 22.2982L25.669 18.2542Z" fill="#F5F6F8"/>
    <path d="M56.3366 34.6505C59.5766 34.6505 61.9254 32.6213 62.1853 29.7766L62.1946 29.6747H59.4652L59.4466 29.7673C59.0846 31.3518 57.9519 32.2784 56.3366 32.2784C54.192 32.2784 52.818 30.5364 52.818 27.7196V27.7103C52.818 24.912 54.192 23.1885 56.3366 23.1885C58.0076 23.1885 59.1031 24.1522 59.4187 25.6255L59.4559 25.783H62.1853L62.176 25.6995C61.916 22.8642 59.5858 20.8164 56.3365 20.8164C52.4281 20.8164 49.9586 23.4108 49.9586 27.7195V27.7288C49.9586 32.0375 52.4188 34.6505 56.3365 34.6505L56.3366 34.6505Z" fill="white"/>
    <path d="M69.9651 34.6505C73.9478 34.6505 76.4265 31.9912 76.4265 27.7381V27.7195C76.4265 23.4757 73.9385 20.8164 69.9651 20.8164C66.001 20.8164 63.5036 23.4664 63.5036 27.7195V27.7381C63.5036 31.9912 65.9824 34.6505 69.9651 34.6505ZM69.9651 32.2784C67.7648 32.2784 66.363 30.5364 66.363 27.7381V27.7195C66.363 24.9212 67.7741 23.1885 69.9651 23.1885C72.1653 23.1885 73.5671 24.9305 73.5671 27.7195V27.7381C73.5671 30.5086 72.1932 32.2784 69.9651 32.2784Z" fill="white"/>
    <path d="M83.8442 34.6505C87.2978 34.6505 89.4516 32.6584 89.4516 29.6932V21.0481H86.6479V29.4431C86.6479 31.1758 85.6453 32.2784 83.8442 32.2784C82.0432 32.2784 81.0312 31.1758 81.0312 29.4431V21.0481H78.2275V29.6932C78.2275 32.6676 80.4092 34.6505 83.8442 34.6505Z" fill="white"/>
    <path d="M91.6797 34.4189H94.4834V29.5728H96.7301L99.2274 34.4189H102.402L99.5802 29.1558C101.066 28.5721 102.003 27.108 102.003 25.3475V25.329C102.003 22.6418 100.221 21.0481 97.2129 21.0481H91.6797V34.4189ZM94.4834 27.4508V23.2348H96.8694C98.2527 23.2348 99.1346 24.0502 99.1346 25.329V25.3475C99.1346 26.6633 98.2991 27.4509 96.9065 27.4509H94.4834V27.4508Z" fill="white"/>
    <path d="M108.743 34.6505C112.123 34.6505 114.146 33.0197 114.146 30.4531V30.4438C114.146 28.3404 112.884 27.2007 110.08 26.6447L108.66 26.3575C107.119 26.0517 106.432 25.5606 106.432 24.7174V24.7082C106.432 23.7538 107.295 23.0959 108.734 23.0866C110.117 23.0866 111.083 23.7259 111.222 24.773L111.231 24.8842H113.877L113.868 24.7082C113.738 22.3638 111.835 20.8165 108.734 20.8165C105.763 20.8165 103.628 22.4288 103.628 24.875V24.8843C103.628 26.895 104.965 28.1552 107.611 28.6833L109.022 28.9613C110.683 29.3041 111.343 29.7582 111.343 30.6662V30.6755C111.343 31.6948 110.368 32.3711 108.817 32.3711C107.286 32.3711 106.181 31.7225 106.004 30.6847L105.986 30.5828H103.34L103.349 30.7311C103.507 33.1958 105.559 34.6506 108.743 34.6506L108.743 34.6505Z" fill="white"/>
    <path d="M115.855 34.4189H124.73V32.1117H118.658V28.7481H124.386V26.5614H118.658V23.3553H124.73V21.0481H115.855V34.4189Z" fill="white"/>
    <path d="M132.714 34.6505C135.954 34.6505 138.303 32.6213 138.563 29.7766L138.572 29.6747H135.843L135.824 29.7673C135.462 31.3518 134.329 32.2784 132.714 32.2784C130.569 32.2784 129.195 30.5364 129.195 27.7196V27.7103C129.195 24.912 130.569 23.1885 132.714 23.1885C134.385 23.1885 135.48 24.1522 135.796 25.6255L135.833 25.783H138.563L138.553 25.6995C138.293 22.8642 135.963 20.8164 132.714 20.8164C128.805 20.8164 126.336 23.4108 126.336 27.7195V27.7288C126.336 32.0375 128.796 34.6505 132.714 34.6505L132.714 34.6505Z" fill="white"/>
    <path d="M138.98 34.4189H141.923L142.935 31.1758H147.67L148.682 34.4189H151.625L146.955 21.0481H143.659L138.98 34.4189ZM145.275 23.6425H145.33L147.02 29.0816H143.585L145.275 23.6425Z" fill="white"/>
    <path d="M157.613 34.6505C160.992 34.6505 163.016 33.0197 163.016 30.4531V30.4438C163.016 28.3404 161.753 27.2007 158.95 26.6447L157.529 26.3575C155.988 26.0517 155.301 25.5606 155.301 24.7174V24.7082C155.301 23.7538 156.164 23.0959 157.603 23.0866C158.987 23.0866 159.952 23.7259 160.091 24.773L160.101 24.8842H162.747L162.737 24.7082C162.607 22.3638 160.704 20.8165 157.603 20.8165C154.633 20.8165 152.497 22.4288 152.497 24.875V24.8843C152.497 26.895 153.834 28.1552 156.48 28.6833L157.891 28.9613C159.553 29.3041 160.212 29.7582 160.212 30.6662V30.6755C160.212 31.6948 159.237 32.3711 157.687 32.3711C156.155 32.3711 155.05 31.7225 154.874 30.6847L154.855 30.5828H152.21L152.219 30.7311C152.377 33.1958 154.428 34.6506 157.613 34.6506L157.613 34.6505Z" fill="white"/>
    <path d="M167.556 34.4189H170.359V23.3553H174.24V21.0481H163.684V23.3553H167.556V34.4189Z" fill="white"/>
  </g>
  <defs>
    <clipPath id="clip0_14_185">
      <rect width="174.24" height="57.969" fill="white"/>
    </clipPath>
  </defs>
</svg>