<?xml version="1.0" encoding="UTF-8" standalone="no"?><!DOCTYPE svg PUBLIC "-//W3C//DTD SVG 1.1//EN" "http://www.w3.org/Graphics/SVG/1.1/DTD/svg11.dtd"><svg width="100%" height="100%" viewBox="0 0 3000 400" version="1.1" xmlns="http://www.w3.org/2000/svg" xmlns:xlink="http://www.w3.org/1999/xlink" xml:space="preserve" xmlns:serif="http://www.serif.com/" style="fill-rule:evenodd;clip-rule:evenodd;stroke-linejoin:round;stroke-miterlimit:2;"><g><path d="M400,40l0,320c0,22.077 -17.923,40 -40,40l-320,0c-22.077,0 -40,-17.923 -40,-40l0,-320c0,-22.077 17.923,-40 40,-40l320,-0c22.077,0 40,17.923 40,40Z" style="fill:#fff;"/><path d="M386.2,51.04l0,297.92c0,20.553 -16.687,37.24 -37.24,37.24l-297.92,0c-20.553,0 -37.24,-16.687 -37.24,-37.24l0,-297.92c0,-20.553 16.687,-37.24 37.24,-37.24l297.92,-0c20.553,0 37.24,16.687 37.24,37.24Z" style="fill:#111a2c;"/><path d="M13.604,206.664c-3.678,-0.108 -6.576,-3.181 -6.468,-6.859c0.108,-3.678 3.181,-6.576 6.859,-6.468c0,0 90.268,2.651 174.499,19.324c165.906,32.84 202.969,81.648 202.969,81.648c2.258,2.905 1.733,7.097 -1.171,9.355c-2.905,2.258 -7.097,1.733 -9.355,-1.171c0,0 -36.09,-45.291 -195.031,-76.752c-83.169,-16.463 -172.301,-19.076 -172.301,-19.076Z" style="fill:#fff9f9;"/><ellipse cx="134.2" cy="298.4" rx="19.4" ry="8.8" style="fill:#f5f6f8;"/><path d="M134.2,282.933c9.454,0 17.548,2.842 21.622,6.406c3.046,2.664 4.445,5.855 4.445,9.061c0,3.206 -1.398,6.397 -4.445,9.061c-4.075,3.564 -12.168,6.406 -21.622,6.406c-9.454,0 -17.548,-2.842 -21.622,-6.406c-3.046,-2.664 -4.445,-5.855 -4.445,-9.061c0,-3.206 1.398,-6.397 4.445,-9.061c4.075,-3.564 12.168,-6.406 21.622,-6.406Zm-11.264,15.467c0.103,0.055 0.205,0.106 0.303,0.15c2.803,1.271 6.688,1.983 10.961,1.983c4.273,0 8.158,-0.712 10.961,-1.983c0.098,-0.044 0.2,-0.095 0.303,-0.15c-0.103,-0.055 -0.205,-0.106 -0.303,-0.15c-2.803,-1.271 -6.688,-1.983 -10.961,-1.983c-4.273,0 -8.158,0.712 -10.961,1.983c-0.098,0.044 -0.2,0.095 -0.303,0.15Z" style="fill:#f5f6f8;"/><path d="M141.3,69.1l0,222.2c0,3.919 -3.181,7.1 -7.1,7.1c-3.919,0 -7.1,-3.181 -7.1,-7.1l0,-222.2c0,-3.919 3.181,-7.1 7.1,-7.1c3.919,0 7.1,3.181 7.1,7.1Z" style="fill:#f5f6f8;"/><path d="M147.967,69.1l0,222.2c0,7.598 -6.169,13.767 -13.767,13.767c-7.598,0 -13.767,-6.169 -13.767,-13.767l0,-222.2c0,-7.598 6.169,-13.767 13.767,-13.767c7.598,0 13.767,6.169 13.767,13.767Zm-13.333,-0c0,-0.239 -0.194,-0.433 -0.433,-0.433c-0.239,0 -0.433,0.194 -0.433,0.433l0,222.2c0,0.239 0.194,0.433 0.433,0.433c0.239,0 0.433,-0.194 0.433,-0.433l0,-222.2Z" style="fill:none;"/><path d="M131.817,74.626c-3.436,-1.315 -5.158,-5.173 -3.843,-8.609c1.315,-3.436 5.173,-5.158 8.609,-3.843l108.2,41.413c3.436,1.315 5.158,5.173 3.843,8.609c-1.315,3.436 -5.173,5.158 -8.609,3.843l-108.2,-41.413Z" style="fill:#f5f6f8;"/><path d="M240.195,103.522c3.472,-1.217 7.279,0.615 8.496,4.087c1.217,3.472 -0.615,7.279 -4.087,8.496l-108.2,37.914c-3.472,1.217 -7.279,-0.615 -8.496,-4.087c-1.217,-3.472 0.615,-7.279 4.087,-8.496l108.2,-37.914Z" style="fill:#f5f6f8;"/></g><g><path d="M653.152,341.46c64.492,0 111.244,-40.469 116.418,-97.2l0.185,-2.033l-54.329,0l-0.37,1.848c-7.207,31.599 -29.751,50.078 -61.905,50.078c-42.687,0 -70.036,-34.741 -70.036,-90.917l0,-0.185c0,-55.807 27.349,-90.178 70.036,-90.178c33.262,0 55.068,19.218 61.351,48.6l0.739,3.141l54.329,0l-0.185,-1.663c-5.174,-56.546 -51.557,-97.385 -116.234,-97.385c-77.797,0 -126.952,51.742 -126.952,137.669l0,0.185c0,85.928 48.97,138.039 126.952,138.039Z" style="fill:#fff;fill-rule:nonzero;"/><path d="M924.426,341.46c79.275,0 128.615,-53.035 128.615,-137.854l0,-0.37c0,-84.634 -49.524,-137.669 -128.615,-137.669c-78.906,0 -128.615,52.85 -128.615,137.669l0,0.37c0,84.819 49.339,137.854 128.615,137.854Zm0,-47.307c-43.796,0 -71.699,-34.741 -71.699,-90.548l0,-0.37c0,-55.807 28.088,-90.363 71.699,-90.363c43.796,0 71.699,34.741 71.699,90.363l0,0.37c0,55.253 -27.349,90.548 -71.699,90.548Z" style="fill:#fff;fill-rule:nonzero;"/><path d="M1200.688,341.46c68.742,0 111.614,-39.73 111.614,-98.863l0,-172.41l-55.807,0l0,167.421c0,34.556 -19.957,56.546 -55.807,56.546c-35.849,0 -55.992,-21.99 -55.992,-56.546l0,-167.421l-55.807,0l0,172.41c0,59.318 43.426,98.863 111.799,98.863Z" style="fill:#fff;fill-rule:nonzero;"/><path d="M1356.652,336.84l55.807,0l0,-96.646l44.719,0l49.709,96.646l63.199,0l-56.177,-104.961c29.567,-11.642 48.23,-40.839 48.23,-75.949l0,-0.37c0,-53.589 -35.48,-85.374 -95.352,-85.374l-110.136,0l0,266.654Zm55.807,-138.963l0,-84.08l47.491,0c27.534,0 45.089,16.262 45.089,41.763l0,0.37c0,26.24 -16.631,41.948 -44.35,41.948l-48.23,0Z" style="fill:#fff;fill-rule:nonzero;"/><path d="M1696.298,341.46c67.264,0 107.548,-32.523 107.548,-83.71l0,-0.185c0,-41.948 -25.132,-64.677 -80.939,-75.764l-28.273,-5.729c-30.675,-6.098 -44.35,-15.892 -44.35,-32.708l0,-0.185c0,-19.033 17.186,-32.154 45.828,-32.338c27.534,0 46.752,12.751 49.524,33.632l0.185,2.217l52.665,0l-0.185,-3.511c-2.587,-46.752 -40.469,-77.612 -102.19,-77.612c-59.133,0 -101.635,32.154 -101.635,80.939l0,0.185c0,40.1 26.61,65.231 79.275,75.764l28.088,5.544c33.078,6.837 46.198,15.892 46.198,34.002l0,0.185c0,20.327 -19.403,33.817 -50.263,33.817c-30.491,0 -52.481,-12.935 -55.992,-33.632l-0.37,-2.033l-52.665,0l0.185,2.957c3.141,49.154 43.98,78.167 107.364,78.167Z" style="fill:#fff;fill-rule:nonzero;"/><path d="M1837.848,336.84l176.66,0l0,-46.013l-120.853,0l0,-67.079l114.016,0l0,-43.611l-114.016,0l0,-63.938l120.853,0l0,-46.013l-176.66,0l0,266.654Z" style="fill:#fff;fill-rule:nonzero;"/><path d="M2173.429,341.46c64.492,0 111.244,-40.469 116.418,-97.2l0.185,-2.033l-54.329,0l-0.37,1.848c-7.207,31.599 -29.751,50.078 -61.905,50.078c-42.687,0 -70.036,-34.741 -70.036,-90.917l0,-0.185c0,-55.807 27.349,-90.178 70.036,-90.178c33.262,0 55.068,19.218 61.351,48.6l0.739,3.141l54.329,0l-0.185,-1.663c-5.174,-56.546 -51.557,-97.385 -116.234,-97.385c-77.797,0 -126.952,51.742 -126.952,137.669l0,0.185c0,85.928 48.97,138.039 126.952,138.039Z" style="fill:#fff;fill-rule:nonzero;"/><path d="M2298.163,336.84l58.579,0l20.142,-64.677l94.243,0l20.142,64.677l58.579,0l-92.95,-266.654l-65.601,0l-93.135,266.654Zm125.288,-214.912l1.109,0l33.632,108.472l-68.373,0l33.632,-108.472Z" style="fill:#fff;fill-rule:nonzero;"/><path d="M2669.039,341.46c67.264,0 107.548,-32.523 107.548,-83.71l0,-0.185c0,-41.948 -25.132,-64.677 -80.939,-75.764l-28.273,-5.729c-30.675,-6.098 -44.35,-15.892 -44.35,-32.708l0,-0.185c0,-19.033 17.186,-32.154 45.828,-32.338c27.534,0 46.752,12.751 49.524,33.632l0.185,2.217l52.665,0l-0.185,-3.511c-2.587,-46.752 -40.469,-77.612 -102.19,-77.612c-59.133,0 -101.635,32.154 -101.635,80.939l0,0.185c0,40.1 26.61,65.231 79.275,75.764l28.088,5.544c33.078,6.837 46.198,15.892 46.198,34.002l0,0.185c0,20.327 -19.403,33.817 -50.263,33.817c-30.491,0 -52.481,-12.935 -55.992,-33.632l-0.37,-2.033l-52.665,0l0.185,2.957c3.141,49.154 43.98,78.167 107.364,78.167Z" style="fill:#fff;fill-rule:nonzero;"/><path d="M2866.95,336.84l55.807,0l0,-220.641l77.243,0l0,-46.013l-210.108,0l0,46.013l77.058,0l0,220.641Z" style="fill:#fff;fill-rule:nonzero;"/></g></svg>