<svg xmlns="http://www.w3.org/2000/svg" version="1.1" xmlns:xlink="http://www.w3.org/1999/xlink" width="48" height="48"><svg width="48" height="48" viewBox="0 0 48 48" fill="none" xmlns="http://www.w3.org/2000/svg">
<g clip-path="url(#clip0_12_693)">
<path fill-rule="evenodd" clip-rule="evenodd" d="M48 4.80006V43.2006C48 45.8498 45.8492 48.0006 43.2 48.0006H4.8C2.15078 48.0006 0 45.8498 0 43.2006V4.80006C0 2.15081 2.15078 0 4.8 0H43.2C45.8492 0 48 2.15081 48 4.80006Z" fill="white"></path>
<path fill-rule="evenodd" clip-rule="evenodd" d="M46.344 6.12487V41.8758C46.344 44.3422 44.3416 46.3446 41.8752 46.3446H6.1248C3.65841 46.3446 1.656 44.3422 1.656 41.8758V6.12487C1.656 3.65845 3.65841 1.65601 6.1248 1.65601H41.8752C44.3416 1.65601 46.344 3.65845 46.344 6.12487Z" fill="#111A2C"></path>
<path fill-rule="evenodd" clip-rule="evenodd" d="M1.63253 24.8C1.19117 24.787 0.843409 24.4182 0.856321 23.9769C0.869281 23.5355 1.23811 23.1878 1.67942 23.2007C1.67942 23.2007 12.5116 23.5188 22.6193 25.5196C42.528 29.4604 46.9755 35.3175 46.9755 35.3175C47.2465 35.6661 47.1836 36.1691 46.8349 36.4401C46.4864 36.7111 45.9833 36.6481 45.7123 36.2995C45.7123 36.2995 41.3815 30.8645 22.3086 27.0892C12.3283 25.1136 1.63243 24.8 1.63243 24.8H1.63253Z" fill="#FFF9F9"></path>
<path d="M16.104 36.8645C17.3897 36.8645 18.432 36.3917 18.432 35.8085C18.432 35.2252 17.3897 34.7524 16.104 34.7524C14.8183 34.7524 13.776 35.2252 13.776 35.8085C13.776 36.3917 14.8183 36.8645 16.104 36.8645Z" fill="#F5F6F8"></path>
<path fill-rule="evenodd" clip-rule="evenodd" d="M16.104 33.9524C17.2385 33.9524 18.2097 34.2934 18.6986 34.7211C19.0642 35.0408 19.232 35.4237 19.232 35.8084C19.232 36.1932 19.0642 36.5761 18.6986 36.8957C18.2097 37.3234 17.2385 37.6645 16.104 37.6645C14.9695 37.6645 13.9983 37.3234 13.5094 36.8957C13.1438 36.5761 12.976 36.1932 12.976 35.8084C12.976 35.4237 13.1438 35.0408 13.5094 34.7211C13.9983 34.2935 14.9695 33.9524 16.104 33.9524ZM14.7523 35.8084C14.7647 35.815 14.7769 35.8211 14.7887 35.8264C15.125 35.979 15.5912 36.0644 16.104 36.0644C16.6168 36.0644 17.083 35.979 17.4193 35.8264C17.4311 35.8211 17.4433 35.815 17.4557 35.8084C17.4433 35.8019 17.4311 35.7958 17.4193 35.7904C17.083 35.6378 16.6168 35.5524 16.104 35.5524C15.5912 35.5524 15.125 35.6379 14.7887 35.7904C14.7769 35.7958 14.7647 35.8019 14.7523 35.8084Z" fill="#F5F6F8"></path>
<path fill-rule="evenodd" clip-rule="evenodd" d="M16.956 8.29207V34.9564C16.956 35.4266 16.5742 35.8084 16.104 35.8084C15.6338 35.8084 15.252 35.4266 15.252 34.9564V8.29207C15.252 7.82186 15.6338 7.44006 16.104 7.44006C16.5742 7.44006 16.956 7.82186 16.956 8.29207Z" fill="#F5F6F8"></path>
<path fill-rule="evenodd" clip-rule="evenodd" d="M15.818 8.95526C15.4057 8.79744 15.199 8.33452 15.3568 7.92214C15.5147 7.50977 15.9776 7.30313 16.3899 7.46095L29.3739 12.4307C29.7863 12.5885 29.9929 13.0514 29.8351 13.4638C29.6773 13.8761 29.2144 14.0828 28.802 13.925L15.818 8.95526Z" fill="#F5F6F8"></path>
<path fill-rule="evenodd" clip-rule="evenodd" d="M28.8234 12.4228C29.2401 12.2768 29.697 12.4966 29.8429 12.9133C29.989 13.33 29.7692 13.7868 29.3525 13.9328L16.3685 18.4825C15.9518 18.6285 15.495 18.4088 15.349 17.9921C15.203 17.5754 15.4227 17.1185 15.8394 16.9725L28.8234 12.4228Z" fill="#F5F6F8"></path>
</g>
<defs>
<clipPath id="SvgjsClipPath1001">
<rect width="48" height="48.0006" fill="white"></rect>
</clipPath>
</defs>
</svg><style>@media (prefers-color-scheme: light) { :root { filter: none; } }
@media (prefers-color-scheme: dark) { :root { filter: none; } }
</style></svg>